<!DOCTYPE svg PUBLIC "-//W3C//DTD SVG 1.1//EN" "http://www.w3.org/Graphics/SVG/1.1/DTD/svg11.dtd">
<svg xmlns="http://www.w3.org/2000/svg" xmlns:xlink="http://www.w3.org/1999/xlink">
    <symbol id="plyr-airplay" viewBox="0 0 18 18">
        <path d="M16 1H2a1 1 0 00-1 1v10a1 1 0 001 1h3v-2H3V3h12v8h-2v2h3a1 1 0 001-1V2a1 1 0 00-1-1z"/>
        <path d="M4 17h10l-5-6z"/>
    </symbol>
    <symbol id="plyr-captions-off" viewBox="0 0 18 18">
    <path d="M1 1c-.6 0-1 .4-1 1v11c0 .6.4 1 1 1h4.6l2.7 2.7c.2.2.4.3.7.3.3 0 .5-.1.7-.3l2.7-2.7H17c.6 0 1-.4 1-1V2c0-.6-.4-1-1-1H1zm4.52 10.15c1.99 0 3.01-1.32 3.28-2.41l-1.29-.39c-.19.66-.78 1.45-1.99 1.45-1.14 0-2.2-.83-2.2-2.34 0-1.61 1.12-2.37 2.18-2.37 1.23 0 1.78.75 1.95 1.43l1.3-.41C8.47 4.96 7.46 3.76 5.5 3.76c-1.9 0-3.61 1.44-3.61 3.7 0 2.26 1.65 3.69 3.63 3.69zm7.57 0c1.99 0 3.01-1.32 3.28-2.41l-1.29-.39c-.19.66-.78 1.45-1.99 1.45-1.14 0-2.2-.83-2.2-2.34 0-1.61 1.12-2.37 2.18-2.37 1.23 0 1.78.75 1.95 1.43l1.3-.41c-.28-1.15-1.29-2.35-3.25-2.35-1.9 0-3.61 1.44-3.61 3.7 0 2.26 1.65 3.69 3.63 3.69z" fill-rule="evenodd" fill-opacity=".5"/>
</symbol>
    <symbol id="plyr-captions-on" viewBox="0 0 18 18">
        <path d="M1 1c-.6 0-1 .4-1 1v11c0 .6.4 1 1 1h4.6l2.7 2.7c.2.2.4.3.7.3.3 0 .5-.1.7-.3l2.7-2.7H17c.6 0 1-.4 1-1V2c0-.6-.4-1-1-1H1zm4.52 10.15c1.99 0 3.01-1.32 3.28-2.41l-1.29-.39c-.19.66-.78 1.45-1.99 1.45-1.14 0-2.2-.83-2.2-2.34 0-1.61 1.12-2.37 2.18-2.37 1.23 0 1.78.75 1.95 1.43l1.3-.41C8.47 4.96 7.46 3.76 5.5 3.76c-1.9 0-3.61 1.44-3.61 3.7 0 2.26 1.65 3.69 3.63 3.69zm7.57 0c1.99 0 3.01-1.32 3.28-2.41l-1.29-.39c-.19.66-.78 1.45-1.99 1.45-1.14 0-2.2-.83-2.2-2.34 0-1.61 1.12-2.37 2.18-2.37 1.23 0 1.78.75 1.95 1.43l1.3-.41c-.28-1.15-1.29-2.35-3.25-2.35-1.9 0-3.61 1.44-3.61 3.7 0 2.26 1.65 3.69 3.63 3.69z" fill-rule="evenodd"/>
    </symbol>
    <symbol id="plyr-download" viewBox="0 0 18 18">
        <path d="M9 13c.3 0 .5-.1.7-.3L15.4 7 14 5.6l-4 4V1H8v8.6l-4-4L2.6 7l5.7 5.7c.2.2.4.3.7.3zm-7 2h14v2H2z"/>
    </symbol>
    <symbol id="plyr-enter-fullscreen" viewBox="0 0 18 18">
        <path d="M10 3h3.6l-4 4L11 8.4l4-4V8h2V1h-7zM7 9.6l-4 4V10H1v7h7v-2H4.4l4-4z"/>
    </symbol>
    <symbol id="plyr-exit-fullscreen" viewBox="0 0 18 18">
        <path d="M1 12h3.6l-4 4L2 17.4l4-4V17h2v-7H1zM16 .6l-4 4V1h-2v7h7V6h-3.6l4-4z"/>
    </symbol>
    <symbol id="plyr-fast-forward" viewBox="0 0 18 18">
        <path d="M7.875 7.171L0 1v16l7.875-6.171V17L18 9 7.875 1z"/>
    </symbol>
    <symbol id="plyr-logo-vimeo" viewBox="0 0 18 18">
        <path d="M17 5.3c-.1 1.6-1.2 3.7-3.3 6.4-2.2 2.8-4 4.2-5.5 4.2-.9 0-1.7-.9-2.4-2.6C5 10.9 4.4 6 3 6c-.1 0-.5.3-1.2.8l-.8-1c.8-.7 3.5-3.4 4.7-3.5 1.2-.1 2 .7 2.3 2.5.3 2 .8 6.1 1.8 6.1.9 0 2.5-3.4 2.6-4 .1-.9-.3-1.9-2.3-1.1.8-2.6 2.3-3.8 4.5-3.8 1.7.1 2.5 1.2 2.4 3.3z"/>
    </symbol>
    <symbol id="plyr-logo-youtube" viewBox="0 0 18 18">
        <path d="M16.8 5.8c-.2-1.3-.8-2.2-2.2-2.4C12.4 3 9 3 9 3s-3.4 0-5.6.4C2 3.6 1.3 4.5 1.2 5.8 1 7.1 1 9 1 9s0 1.9.2 3.2c.2 1.3.8 2.2 2.2 2.4C5.6 15 9 15 9 15s3.4 0 5.6-.4c1.4-.3 2-1.1 2.2-2.4.2-1.3.2-3.2.2-3.2s0-1.9-.2-3.2zM7 12V6l5 3-5 3z"/>
    </symbol>
    <symbol id="plyr-muted" viewBox="0 0 18 18">
        <path d="M12.4 12.5l2.1-2.1 2.1 2.1 1.4-1.4L15.9 9 18 6.9l-1.4-1.4-2.1 2.1-2.1-2.1L11 6.9 13.1 9 11 11.1zM3.786 6.008H.714C.286 6.008 0 6.31 0 6.76v4.512c0 .452.286.752.714.752h3.072l4.071 3.858c.5.3 1.143 0 1.143-.602V2.752c0-.601-.643-.977-1.143-.601L3.786 6.008z"/>
    </symbol>
    <symbol id="plyr-pause" viewBox="0 0 18 18">
        <path d="M6 1H3c-.6 0-1 .4-1 1v14c0 .6.4 1 1 1h3c.6 0 1-.4 1-1V2c0-.6-.4-1-1-1zm6 0c-.6 0-1 .4-1 1v14c0 .6.4 1 1 1h3c.6 0 1-.4 1-1V2c0-.6-.4-1-1-1h-3z"/>
    </symbol>
    <symbol id="plyr-pip" viewBox="0 0 18 18">
        <path d="M13.293 3.293L7.022 9.564l1.414 1.414 6.271-6.271L17 7V1h-6z"/>
        <path d="M13 15H3V5h5V3H2a1 1 0 00-1 1v12a1 1 0 001 1h12a1 1 0 001-1v-6h-2v5z"/>
    </symbol>
    <symbol id="plyr-play">
        <svg xmlns="http://www.w3.org/2000/svg" xmlns:xlink="http://www.w3.org/1999/xlink" viewBox="0 0 50 50" version="1.1">
            <path style=" stroke:none;fill-rule:evenodd;fill:rgb(98.823529%,98.431373%,98.431373%);fill-opacity:1;" d="M 19.515625 17.570312 C 19.515625 23.476562 19.523438 24.953125 19.558594 24.921875 C 19.605469 24.886719 19.761719 24.792969 20.070312 24.625 C 20.175781 24.566406 20.296875 24.5 20.335938 24.472656 C 20.378906 24.445312 20.46875 24.394531 20.535156 24.355469 C 20.601562 24.316406 20.714844 24.25 20.789062 24.207031 C 20.859375 24.164062 20.980469 24.101562 21.054688 24.058594 C 21.132812 24.019531 21.203125 23.976562 21.210938 23.96875 C 21.230469 23.949219 21.300781 23.90625 21.554688 23.765625 C 21.644531 23.71875 21.800781 23.625 21.90625 23.5625 C 22.011719 23.5 22.164062 23.410156 22.25 23.363281 C 22.335938 23.3125 22.464844 23.242188 22.535156 23.199219 C 22.609375 23.160156 22.726562 23.089844 22.796875 23.046875 C 22.867188 23.007812 22.996094 22.933594 23.082031 22.886719 C 23.167969 22.835938 23.339844 22.738281 23.460938 22.667969 C 23.585938 22.59375 23.746094 22.5 23.816406 22.460938 C 23.886719 22.421875 24 22.355469 24.066406 22.316406 C 24.132812 22.277344 24.242188 22.214844 24.308594 22.175781 C 24.375 22.136719 24.484375 22.074219 24.550781 22.035156 C 24.617188 21.996094 24.726562 21.933594 24.792969 21.894531 C 24.859375 21.855469 24.964844 21.792969 25.027344 21.757812 C 25.464844 21.5 25.828125 21.296875 25.839844 21.296875 C 25.847656 21.296875 25.898438 21.265625 25.949219 21.230469 C 25.996094 21.195312 26.125 21.117188 26.230469 21.0625 C 26.335938 21.003906 26.738281 20.769531 27.128906 20.542969 C 27.515625 20.320312 27.839844 20.136719 27.847656 20.136719 C 27.855469 20.136719 27.90625 20.109375 27.953125 20.074219 C 28.007812 20.035156 28.132812 19.960938 28.238281 19.902344 C 28.34375 19.84375 28.535156 19.730469 28.667969 19.65625 C 28.804688 19.578125 28.980469 19.476562 29.066406 19.425781 C 29.152344 19.378906 29.277344 19.308594 29.34375 19.269531 C 30.242188 18.742188 30.625 18.519531 30.636719 18.519531 C 30.644531 18.519531 30.753906 18.457031 30.878906 18.378906 C 31.007812 18.300781 31.125 18.238281 31.144531 18.238281 C 31.164062 18.238281 31.179688 18.222656 31.179688 18.203125 C 31.179688 18.183594 31.191406 18.167969 31.207031 18.167969 C 31.261719 18.167969 32.21875 17.601562 32.21875 17.570312 C 32.21875 17.554688 32.136719 17.496094 32.035156 17.441406 C 31.933594 17.382812 31.796875 17.304688 31.722656 17.261719 C 31.601562 17.191406 31.539062 17.152344 31.222656 16.96875 C 31.148438 16.925781 31.023438 16.855469 30.9375 16.804688 C 30.851562 16.757812 30.640625 16.636719 30.46875 16.535156 C 30.296875 16.433594 30.085938 16.3125 30 16.265625 C 29.917969 16.214844 29.789062 16.140625 29.71875 16.101562 C 29.644531 16.058594 29.53125 15.992188 29.464844 15.953125 C 29.398438 15.917969 29.289062 15.851562 29.222656 15.8125 C 29.152344 15.773438 29.0625 15.722656 29.023438 15.695312 C 28.980469 15.667969 28.859375 15.601562 28.753906 15.542969 C 28.652344 15.484375 28.507812 15.402344 28.4375 15.363281 C 28.300781 15.285156 28.128906 15.1875 27.992188 15.105469 C 27.945312 15.078125 27.902344 15.050781 27.890625 15.039062 C 27.882812 15.03125 27.828125 15 27.769531 14.972656 C 27.714844 14.941406 27.570312 14.859375 27.449219 14.785156 C 27.332031 14.714844 27.226562 14.65625 27.214844 14.65625 C 27.207031 14.65625 27.140625 14.617188 27.066406 14.574219 C 26.996094 14.527344 26.855469 14.441406 26.75 14.382812 C 26.445312 14.214844 26.285156 14.121094 26.25 14.09375 C 26.230469 14.078125 26.125 14.019531 26.023438 13.960938 C 25.851562 13.867188 25.335938 13.566406 25.019531 13.378906 C 24.953125 13.339844 24.835938 13.273438 24.761719 13.234375 C 24.683594 13.195312 24.613281 13.152344 24.605469 13.144531 C 24.585938 13.125 24.5 13.074219 24.222656 12.921875 C 24.117188 12.863281 23.832031 12.699219 23.589844 12.558594 C 23.34375 12.414062 23.128906 12.300781 23.113281 12.300781 C 23.09375 12.300781 23.082031 12.285156 23.082031 12.269531 C 23.082031 12.257812 23.027344 12.222656 22.960938 12.195312 C 22.894531 12.167969 22.839844 12.132812 22.839844 12.117188 C 22.839844 12.101562 22.824219 12.089844 22.808594 12.089844 C 22.789062 12.089844 22.585938 11.976562 22.347656 11.839844 C 22.113281 11.703125 21.859375 11.554688 21.785156 11.511719 C 21.644531 11.429688 21.5 11.347656 21.253906 11.207031 C 21.183594 11.164062 21.039062 11.082031 20.933594 11.023438 C 20.753906 10.921875 20.210938 10.605469 19.976562 10.46875 C 19.914062 10.433594 19.804688 10.367188 19.734375 10.328125 C 19.664062 10.289062 19.585938 10.238281 19.558594 10.21875 C 19.523438 10.1875 19.515625 11.664062 19.515625 17.570312 "/>
            <path style=" stroke:none;fill-rule:evenodd;fill:rgb(98.823529%,1.568627%,1.568627%);fill-opacity:1;" d="M 19.628906 0.0234375 C 18.445312 0.03125 17.785156 0.046875 17.785156 0.0703125 C 17.785156 0.09375 17.371094 0.105469 16.625 0.105469 C 15.878906 0.105469 15.46875 0.117188 15.46875 0.140625 C 15.46875 0.164062 15.152344 0.175781 14.585938 0.175781 C 14.019531 0.175781 13.703125 0.1875 13.703125 0.210938 C 13.703125 0.234375 13.4375 0.246094 12.976562 0.246094 C 12.515625 0.246094 12.25 0.257812 12.25 0.28125 C 12.25 0.304688 12.023438 0.316406 11.644531 0.316406 C 11.265625 0.316406 11.039062 0.328125 11.039062 0.351562 C 11.039062 0.371094 10.847656 0.386719 10.535156 0.386719 C 10.261719 0.386719 10.035156 0.398438 10.035156 0.414062 C 10.035156 0.433594 9.707031 0.457031 9.304688 0.472656 C 8.902344 0.484375 8.535156 0.511719 8.492188 0.527344 C 8.441406 0.546875 8.265625 0.5625 8.09375 0.5625 C 7.910156 0.5625 7.785156 0.578125 7.785156 0.597656 C 7.785156 0.617188 7.671875 0.632812 7.507812 0.632812 C 7.347656 0.632812 7.230469 0.648438 7.230469 0.667969 C 7.230469 0.6875 7.125 0.703125 6.972656 0.703125 C 6.824219 0.703125 6.714844 0.71875 6.714844 0.738281 C 6.714844 0.757812 6.621094 0.773438 6.507812 0.773438 C 6.390625 0.773438 6.296875 0.789062 6.296875 0.808594 C 6.296875 0.828125 6.210938 0.84375 6.109375 0.84375 C 6.003906 0.84375 5.917969 0.859375 5.917969 0.878906 C 5.917969 0.898438 5.839844 0.914062 5.742188 0.914062 C 5.648438 0.914062 5.570312 0.929688 5.570312 0.949219 C 5.570312 0.96875 5.515625 0.984375 5.453125 0.984375 C 5.386719 0.984375 5.324219 1 5.3125 1.019531 C 5.300781 1.039062 5.253906 1.054688 5.207031 1.054688 C 5.160156 1.054688 5.121094 1.070312 5.121094 1.089844 C 5.121094 1.109375 5.074219 1.125 5.019531 1.125 C 4.960938 1.125 4.914062 1.140625 4.914062 1.160156 C 4.914062 1.179688 4.867188 1.195312 4.8125 1.195312 C 4.753906 1.195312 4.707031 1.210938 4.707031 1.230469 C 4.707031 1.25 4.675781 1.265625 4.636719 1.265625 C 4.597656 1.265625 4.566406 1.28125 4.566406 1.300781 C 4.566406 1.320312 4.519531 1.335938 4.464844 1.335938 C 4.40625 1.335938 4.359375 1.351562 4.359375 1.371094 C 4.359375 1.390625 4.335938 1.40625 4.308594 1.40625 C 4.28125 1.40625 4.253906 1.421875 4.253906 1.441406 C 4.253906 1.460938 4.230469 1.476562 4.199219 1.476562 C 4.121094 1.476562 3.773438 1.652344 3.773438 1.691406 C 3.773438 1.707031 3.742188 1.722656 3.710938 1.722656 C 3.675781 1.722656 3.625 1.753906 3.597656 1.792969 C 3.570312 1.832031 3.523438 1.863281 3.496094 1.863281 C 3.464844 1.863281 3.417969 1.894531 3.390625 1.933594 C 3.363281 1.972656 3.328125 2.003906 3.3125 2.003906 C 3.292969 2.003906 3.238281 2.050781 3.183594 2.109375 C 3.128906 2.167969 3.070312 2.214844 3.050781 2.214844 C 2.96875 2.214844 2.179688 3.011719 2.179688 3.09375 C 2.179688 3.117188 2.132812 3.179688 2.078125 3.234375 C 2.019531 3.289062 1.972656 3.355469 1.972656 3.386719 C 1.972656 3.414062 1.941406 3.449219 1.90625 3.460938 C 1.867188 3.472656 1.820312 3.527344 1.792969 3.585938 C 1.769531 3.644531 1.734375 3.691406 1.722656 3.691406 C 1.707031 3.691406 1.695312 3.722656 1.695312 3.757812 C 1.695312 3.796875 1.679688 3.832031 1.664062 3.832031 C 1.632812 3.832031 1.382812 4.320312 1.382812 4.386719 C 1.382812 4.410156 1.367188 4.425781 1.347656 4.425781 C 1.332031 4.425781 1.3125 4.460938 1.3125 4.5 C 1.3125 4.535156 1.300781 4.570312 1.28125 4.570312 C 1.261719 4.570312 1.246094 4.617188 1.246094 4.675781 C 1.246094 4.730469 1.230469 4.777344 1.210938 4.777344 C 1.191406 4.777344 1.175781 4.8125 1.175781 4.851562 C 1.175781 4.886719 1.160156 4.921875 1.140625 4.921875 C 1.121094 4.921875 1.105469 4.96875 1.105469 5.023438 C 1.105469 5.082031 1.089844 5.128906 1.074219 5.128906 C 1.054688 5.128906 1.039062 5.183594 1.039062 5.25 C 1.039062 5.320312 1.023438 5.382812 1.003906 5.394531 C 0.984375 5.40625 0.96875 5.453125 0.96875 5.5 C 0.96875 5.546875 0.953125 5.59375 0.933594 5.605469 C 0.914062 5.617188 0.898438 5.699219 0.898438 5.78125 C 0.898438 5.867188 0.882812 5.941406 0.863281 5.941406 C 0.84375 5.941406 0.832031 6.003906 0.832031 6.078125 C 0.832031 6.15625 0.816406 6.21875 0.796875 6.21875 C 0.777344 6.21875 0.761719 6.289062 0.761719 6.375 C 0.761719 6.460938 0.746094 6.542969 0.726562 6.554688 C 0.707031 6.566406 0.691406 6.660156 0.691406 6.765625 C 0.691406 6.871094 0.675781 6.957031 0.65625 6.957031 C 0.636719 6.957031 0.625 7.042969 0.625 7.144531 C 0.625 7.246094 0.609375 7.34375 0.589844 7.363281 C 0.558594 7.402344 0.542969 7.527344 0.480469 8.320312 C 0.457031 8.613281 0.425781 8.855469 0.410156 8.855469 C 0.394531 8.855469 0.382812 8.988281 0.382812 9.15625 C 0.382812 9.332031 0.367188 9.453125 0.347656 9.453125 C 0.324219 9.453125 0.3125 9.605469 0.3125 9.839844 C 0.3125 10.074219 0.296875 10.226562 0.277344 10.226562 C 0.253906 10.226562 0.242188 10.382812 0.242188 10.632812 C 0.242188 10.875 0.226562 11.035156 0.207031 11.035156 C 0.1875 11.035156 0.171875 11.226562 0.171875 11.546875 C 0.171875 11.859375 0.160156 12.054688 0.140625 12.054688 C 0.117188 12.054688 0.105469 12.273438 0.105469 12.644531 C 0.105469 13.070312 0.09375 13.246094 0.0625 13.277344 C -0.00390625 13.34375 -0.00390625 21.800781 0.0625 21.863281 C 0.09375 21.894531 0.105469 22.074219 0.105469 22.5 C 0.105469 22.867188 0.117188 23.089844 0.140625 23.089844 C 0.160156 23.089844 0.171875 23.28125 0.171875 23.597656 C 0.171875 23.914062 0.1875 24.109375 0.207031 24.109375 C 0.226562 24.109375 0.242188 24.265625 0.242188 24.511719 C 0.242188 24.757812 0.253906 24.914062 0.277344 24.914062 C 0.296875 24.914062 0.3125 25.070312 0.3125 25.300781 C 0.3125 25.539062 0.324219 25.691406 0.347656 25.691406 C 0.367188 25.691406 0.382812 25.8125 0.382812 25.988281 C 0.382812 26.152344 0.394531 26.285156 0.410156 26.285156 C 0.425781 26.285156 0.453125 26.503906 0.464844 26.765625 C 0.476562 27.027344 0.503906 27.28125 0.523438 27.328125 C 0.539062 27.378906 0.554688 27.492188 0.554688 27.585938 C 0.554688 27.683594 0.570312 27.769531 0.589844 27.78125 C 0.609375 27.792969 0.625 27.890625 0.625 27.992188 C 0.625 28.097656 0.636719 28.183594 0.65625 28.183594 C 0.675781 28.183594 0.691406 28.269531 0.691406 28.375 C 0.691406 28.480469 0.707031 28.578125 0.726562 28.589844 C 0.746094 28.601562 0.761719 28.679688 0.761719 28.765625 C 0.761719 28.851562 0.777344 28.921875 0.796875 28.921875 C 0.816406 28.921875 0.832031 28.988281 0.832031 29.0625 C 0.832031 29.140625 0.84375 29.203125 0.863281 29.203125 C 0.882812 29.203125 0.898438 29.273438 0.898438 29.359375 C 0.898438 29.445312 0.914062 29.523438 0.933594 29.539062 C 0.953125 29.550781 0.96875 29.605469 0.96875 29.664062 C 0.96875 29.71875 0.984375 29.765625 1.003906 29.765625 C 1.023438 29.765625 1.039062 29.820312 1.039062 29.890625 C 1.039062 29.957031 1.054688 30.011719 1.074219 30.011719 C 1.089844 30.011719 1.105469 30.058594 1.105469 30.117188 C 1.105469 30.175781 1.121094 30.222656 1.140625 30.222656 C 1.160156 30.222656 1.175781 30.253906 1.175781 30.292969 C 1.175781 30.332031 1.191406 30.363281 1.210938 30.363281 C 1.230469 30.363281 1.246094 30.410156 1.246094 30.46875 C 1.246094 30.527344 1.261719 30.574219 1.28125 30.574219 C 1.300781 30.574219 1.3125 30.605469 1.3125 30.644531 C 1.3125 30.683594 1.332031 30.714844 1.347656 30.714844 C 1.367188 30.714844 1.382812 30.734375 1.382812 30.757812 C 1.382812 30.824219 1.632812 31.3125 1.664062 31.3125 C 1.679688 31.3125 1.695312 31.34375 1.695312 31.382812 C 1.695312 31.421875 1.710938 31.453125 1.730469 31.453125 C 1.75 31.453125 1.765625 31.472656 1.765625 31.5 C 1.765625 31.527344 1.8125 31.597656 1.871094 31.65625 C 1.925781 31.71875 1.972656 31.777344 1.972656 31.789062 C 1.972656 31.800781 2.019531 31.855469 2.078125 31.910156 C 2.132812 31.964844 2.179688 32.027344 2.179688 32.046875 C 2.179688 32.128906 2.96875 32.929688 3.046875 32.929688 C 3.070312 32.929688 3.128906 32.976562 3.183594 33.035156 C 3.238281 33.09375 3.292969 33.140625 3.3125 33.140625 C 3.328125 33.140625 3.363281 33.171875 3.390625 33.210938 C 3.417969 33.25 3.464844 33.28125 3.496094 33.28125 C 3.523438 33.28125 3.570312 33.3125 3.597656 33.351562 C 3.625 33.390625 3.675781 33.421875 3.710938 33.421875 C 3.742188 33.421875 3.773438 33.433594 3.773438 33.453125 C 3.773438 33.492188 4.121094 33.667969 4.199219 33.667969 C 4.230469 33.667969 4.253906 33.683594 4.253906 33.703125 C 4.253906 33.722656 4.28125 33.738281 4.308594 33.738281 C 4.335938 33.738281 4.359375 33.753906 4.359375 33.773438 C 4.359375 33.792969 4.40625 33.808594 4.464844 33.808594 C 4.519531 33.808594 4.566406 33.824219 4.566406 33.84375 C 4.566406 33.863281 4.597656 33.878906 4.636719 33.878906 C 4.675781 33.878906 4.707031 33.894531 4.707031 33.914062 C 4.707031 33.933594 4.753906 33.949219 4.8125 33.949219 C 4.867188 33.949219 4.914062 33.964844 4.914062 33.984375 C 4.914062 34.003906 4.960938 34.019531 5.019531 34.019531 C 5.074219 34.019531 5.121094 34.035156 5.121094 34.054688 C 5.121094 34.074219 5.160156 34.089844 5.207031 34.089844 C 5.253906 34.089844 5.300781 34.105469 5.3125 34.125 C 5.324219 34.144531 5.386719 34.160156 5.453125 34.160156 C 5.515625 34.160156 5.570312 34.175781 5.570312 34.195312 C 5.570312 34.214844 5.648438 34.230469 5.742188 34.230469 C 5.839844 34.230469 5.917969 34.246094 5.917969 34.265625 C 5.917969 34.285156 6.003906 34.300781 6.109375 34.300781 C 6.210938 34.300781 6.296875 34.316406 6.296875 34.335938 C 6.296875 34.355469 6.390625 34.371094 6.507812 34.371094 C 6.621094 34.371094 6.714844 34.386719 6.714844 34.40625 C 6.714844 34.425781 6.824219 34.441406 6.972656 34.441406 C 7.125 34.441406 7.230469 34.457031 7.230469 34.476562 C 7.230469 34.496094 7.347656 34.511719 7.507812 34.511719 C 7.671875 34.511719 7.785156 34.523438 7.785156 34.546875 C 7.785156 34.566406 7.917969 34.582031 8.109375 34.582031 C 8.285156 34.582031 8.445312 34.59375 8.460938 34.613281 C 8.480469 34.632812 8.839844 34.65625 9.265625 34.671875 C 9.6875 34.683594 10.035156 34.710938 10.035156 34.726562 C 10.035156 34.742188 10.261719 34.757812 10.535156 34.757812 C 10.847656 34.757812 11.039062 34.769531 11.039062 34.792969 C 11.039062 34.8125 11.265625 34.828125 11.644531 34.828125 C 12.023438 34.828125 12.25 34.839844 12.25 34.863281 C 12.25 34.882812 12.511719 34.898438 12.960938 34.898438 C 13.410156 34.898438 13.667969 34.910156 13.667969 34.933594 C 13.667969 34.957031 13.992188 34.964844 14.570312 34.964844 C 15.144531 34.964844 15.46875 34.980469 15.46875 35 C 15.46875 35.023438 15.878906 35.039062 16.625 35.039062 C 17.507812 35.039062 17.785156 35.046875 17.792969 35.082031 C 17.816406 35.144531 31.183594 35.144531 31.207031 35.082031 C 31.214844 35.046875 31.492188 35.039062 32.375 35.039062 C 33.121094 35.039062 33.53125 35.023438 33.53125 35 C 33.53125 34.980469 33.847656 34.964844 34.414062 34.964844 C 34.980469 34.964844 35.296875 34.957031 35.296875 34.933594 C 35.296875 34.910156 35.5625 34.898438 36.023438 34.898438 C 36.484375 34.898438 36.75 34.882812 36.75 34.863281 C 36.75 34.839844 36.976562 34.828125 37.355469 34.828125 C 37.734375 34.828125 37.960938 34.8125 37.960938 34.792969 C 37.960938 34.769531 38.152344 34.757812 38.464844 34.757812 C 38.738281 34.757812 38.964844 34.742188 38.964844 34.726562 C 38.964844 34.710938 39.3125 34.683594 39.734375 34.671875 C 40.160156 34.65625 40.519531 34.632812 40.539062 34.613281 C 40.554688 34.59375 40.714844 34.582031 40.890625 34.582031 C 41.082031 34.582031 41.214844 34.566406 41.214844 34.546875 C 41.214844 34.523438 41.328125 34.511719 41.492188 34.511719 C 41.652344 34.511719 41.769531 34.496094 41.769531 34.476562 C 41.769531 34.457031 41.875 34.441406 42.027344 34.441406 C 42.175781 34.441406 42.285156 34.425781 42.285156 34.40625 C 42.285156 34.386719 42.378906 34.371094 42.492188 34.371094 C 42.609375 34.371094 42.703125 34.355469 42.703125 34.335938 C 42.703125 34.316406 42.789062 34.300781 42.890625 34.300781 C 42.996094 34.300781 43.082031 34.285156 43.082031 34.265625 C 43.082031 34.246094 43.160156 34.230469 43.257812 34.230469 C 43.351562 34.230469 43.429688 34.214844 43.429688 34.195312 C 43.429688 34.175781 43.484375 34.160156 43.546875 34.160156 C 43.613281 34.160156 43.675781 34.144531 43.6875 34.125 C 43.699219 34.105469 43.746094 34.089844 43.792969 34.089844 C 43.839844 34.089844 43.878906 34.074219 43.878906 34.054688 C 43.878906 34.035156 43.925781 34.019531 43.980469 34.019531 C 44.039062 34.019531 44.085938 34.003906 44.085938 33.984375 C 44.085938 33.964844 44.132812 33.949219 44.1875 33.949219 C 44.246094 33.949219 44.292969 33.933594 44.292969 33.914062 C 44.292969 33.894531 44.324219 33.878906 44.363281 33.878906 C 44.402344 33.878906 44.433594 33.863281 44.433594 33.84375 C 44.433594 33.824219 44.480469 33.808594 44.535156 33.808594 C 44.59375 33.808594 44.640625 33.792969 44.640625 33.773438 C 44.640625 33.753906 44.664062 33.738281 44.691406 33.738281 C 44.71875 33.738281 44.746094 33.722656 44.746094 33.703125 C 44.746094 33.683594 44.769531 33.667969 44.800781 33.667969 C 44.878906 33.667969 45.226562 33.492188 45.226562 33.453125 C 45.226562 33.433594 45.257812 33.421875 45.289062 33.421875 C 45.324219 33.421875 45.375 33.390625 45.402344 33.351562 C 45.429688 33.3125 45.476562 33.28125 45.503906 33.28125 C 45.535156 33.28125 45.582031 33.25 45.609375 33.210938 C 45.636719 33.171875 45.671875 33.140625 45.6875 33.140625 C 45.707031 33.140625 45.761719 33.09375 45.816406 33.035156 C 45.871094 32.976562 45.929688 32.929688 45.953125 32.929688 C 46.035156 32.929688 46.820312 32.128906 46.820312 32.046875 C 46.820312 32.027344 46.867188 31.964844 46.921875 31.910156 C 46.980469 31.855469 47.027344 31.800781 47.027344 31.789062 C 47.027344 31.777344 47.074219 31.71875 47.128906 31.65625 C 47.1875 31.597656 47.234375 31.527344 47.234375 31.5 C 47.234375 31.472656 47.25 31.453125 47.269531 31.453125 C 47.289062 31.453125 47.304688 31.421875 47.304688 31.382812 C 47.304688 31.34375 47.316406 31.3125 47.332031 31.3125 C 47.347656 31.3125 47.398438 31.238281 47.445312 31.144531 C 47.492188 31.054688 47.539062 30.972656 47.550781 30.960938 C 47.5625 30.953125 47.582031 30.890625 47.597656 30.828125 C 47.609375 30.765625 47.636719 30.714844 47.652344 30.714844 C 47.671875 30.714844 47.6875 30.683594 47.6875 30.644531 C 47.6875 30.605469 47.699219 30.574219 47.71875 30.574219 C 47.738281 30.574219 47.753906 30.527344 47.753906 30.46875 C 47.753906 30.410156 47.769531 30.363281 47.789062 30.363281 C 47.808594 30.363281 47.824219 30.332031 47.824219 30.292969 C 47.824219 30.253906 47.839844 30.222656 47.859375 30.222656 C 47.878906 30.222656 47.894531 30.175781 47.894531 30.117188 C 47.894531 30.058594 47.910156 30.011719 47.925781 30.011719 C 47.945312 30.011719 47.960938 29.957031 47.960938 29.890625 C 47.960938 29.820312 47.976562 29.765625 47.996094 29.765625 C 48.015625 29.765625 48.03125 29.71875 48.03125 29.664062 C 48.03125 29.605469 48.046875 29.550781 48.066406 29.539062 C 48.085938 29.523438 48.101562 29.445312 48.101562 29.359375 C 48.101562 29.273438 48.117188 29.203125 48.136719 29.203125 C 48.15625 29.203125 48.167969 29.140625 48.167969 29.0625 C 48.167969 28.988281 48.183594 28.921875 48.203125 28.921875 C 48.222656 28.921875 48.238281 28.851562 48.238281 28.765625 C 48.238281 28.679688 48.253906 28.601562 48.273438 28.589844 C 48.292969 28.578125 48.308594 28.480469 48.308594 28.375 C 48.308594 28.269531 48.324219 28.183594 48.34375 28.183594 C 48.363281 28.183594 48.375 28.097656 48.375 27.992188 C 48.375 27.890625 48.390625 27.792969 48.410156 27.78125 C 48.429688 27.769531 48.445312 27.679688 48.445312 27.582031 C 48.445312 27.484375 48.460938 27.378906 48.476562 27.347656 C 48.496094 27.3125 48.523438 27.0625 48.535156 26.785156 C 48.546875 26.511719 48.574219 26.285156 48.589844 26.285156 C 48.605469 26.285156 48.617188 26.152344 48.617188 25.988281 C 48.617188 25.8125 48.632812 25.691406 48.652344 25.691406 C 48.675781 25.691406 48.6875 25.539062 48.6875 25.300781 C 48.6875 25.070312 48.703125 24.914062 48.722656 24.914062 C 48.746094 24.914062 48.757812 24.757812 48.757812 24.511719 C 48.757812 24.265625 48.773438 24.109375 48.792969 24.109375 C 48.8125 24.109375 48.828125 23.914062 48.828125 23.597656 C 48.828125 23.28125 48.839844 23.089844 48.859375 23.089844 C 48.882812 23.089844 48.894531 22.867188 48.894531 22.5 C 48.894531 22.074219 48.90625 21.894531 48.9375 21.863281 C 48.972656 21.828125 48.984375 20.921875 48.984375 17.570312 C 48.984375 14.21875 48.972656 13.3125 48.9375 13.277344 C 48.90625 13.246094 48.894531 13.070312 48.894531 12.644531 C 48.894531 12.273438 48.882812 12.054688 48.859375 12.054688 C 48.839844 12.054688 48.828125 11.859375 48.828125 11.546875 C 48.828125 11.226562 48.8125 11.035156 48.792969 11.035156 C 48.773438 11.035156 48.757812 10.875 48.757812 10.632812 C 48.757812 10.382812 48.746094 10.226562 48.722656 10.226562 C 48.703125 10.226562 48.6875 10.074219 48.6875 9.839844 C 48.6875 9.605469 48.675781 9.453125 48.652344 9.453125 C 48.632812 9.453125 48.617188 9.332031 48.617188 9.15625 C 48.617188 8.988281 48.605469 8.855469 48.589844 8.855469 C 48.574219 8.855469 48.542969 8.613281 48.523438 8.320312 C 48.464844 7.566406 48.445312 7.402344 48.410156 7.363281 C 48.390625 7.34375 48.375 7.246094 48.375 7.144531 C 48.375 7.042969 48.363281 6.957031 48.34375 6.957031 C 48.324219 6.957031 48.308594 6.871094 48.308594 6.765625 C 48.308594 6.660156 48.292969 6.566406 48.273438 6.554688 C 48.253906 6.542969 48.238281 6.460938 48.238281 6.375 C 48.238281 6.289062 48.222656 6.21875 48.203125 6.21875 C 48.183594 6.21875 48.167969 6.15625 48.167969 6.078125 C 48.167969 6.003906 48.15625 5.941406 48.136719 5.941406 C 48.117188 5.941406 48.101562 5.867188 48.101562 5.78125 C 48.101562 5.699219 48.085938 5.617188 48.066406 5.605469 C 48.046875 5.59375 48.03125 5.546875 48.03125 5.5 C 48.03125 5.453125 48.015625 5.40625 47.996094 5.394531 C 47.976562 5.382812 47.960938 5.320312 47.960938 5.25 C 47.960938 5.183594 47.945312 5.128906 47.925781 5.128906 C 47.910156 5.128906 47.894531 5.082031 47.894531 5.023438 C 47.894531 4.96875 47.878906 4.921875 47.859375 4.921875 C 47.839844 4.921875 47.824219 4.886719 47.824219 4.851562 C 47.824219 4.8125 47.808594 4.777344 47.789062 4.777344 C 47.769531 4.777344 47.753906 4.730469 47.753906 4.675781 C 47.753906 4.617188 47.742188 4.570312 47.726562 4.570312 C 47.695312 4.570312 47.582031 4.308594 47.582031 4.238281 C 47.582031 4.210938 47.570312 4.183594 47.554688 4.175781 C 47.539062 4.167969 47.492188 4.089844 47.445312 3.996094 C 47.398438 3.90625 47.347656 3.832031 47.332031 3.832031 C 47.316406 3.832031 47.304688 3.796875 47.304688 3.757812 C 47.304688 3.722656 47.292969 3.691406 47.277344 3.691406 C 47.265625 3.691406 47.230469 3.644531 47.207031 3.585938 C 47.179688 3.527344 47.132812 3.472656 47.09375 3.460938 C 47.058594 3.449219 47.027344 3.414062 47.027344 3.386719 C 47.027344 3.355469 46.980469 3.289062 46.921875 3.234375 C 46.867188 3.179688 46.820312 3.117188 46.820312 3.097656 C 46.820312 3.011719 46.035156 2.214844 45.949219 2.214844 C 45.929688 2.214844 45.871094 2.167969 45.816406 2.109375 C 45.761719 2.050781 45.707031 2.003906 45.6875 2.003906 C 45.671875 2.003906 45.636719 1.972656 45.609375 1.933594 C 45.582031 1.894531 45.535156 1.863281 45.503906 1.863281 C 45.476562 1.863281 45.429688 1.832031 45.402344 1.792969 C 45.375 1.753906 45.324219 1.722656 45.289062 1.722656 C 45.257812 1.722656 45.226562 1.707031 45.226562 1.691406 C 45.226562 1.652344 44.878906 1.476562 44.800781 1.476562 C 44.769531 1.476562 44.746094 1.460938 44.746094 1.441406 C 44.746094 1.421875 44.71875 1.40625 44.691406 1.40625 C 44.664062 1.40625 44.640625 1.390625 44.640625 1.371094 C 44.640625 1.351562 44.59375 1.335938 44.535156 1.335938 C 44.480469 1.335938 44.433594 1.320312 44.433594 1.300781 C 44.433594 1.28125 44.402344 1.265625 44.363281 1.265625 C 44.324219 1.265625 44.292969 1.25 44.292969 1.230469 C 44.292969 1.210938 44.246094 1.195312 44.1875 1.195312 C 44.132812 1.195312 44.085938 1.179688 44.085938 1.160156 C 44.085938 1.140625 44.039062 1.125 43.980469 1.125 C 43.925781 1.125 43.878906 1.109375 43.878906 1.089844 C 43.878906 1.070312 43.839844 1.054688 43.792969 1.054688 C 43.746094 1.054688 43.699219 1.039062 43.6875 1.019531 C 43.675781 1 43.613281 0.984375 43.546875 0.984375 C 43.484375 0.984375 43.429688 0.96875 43.429688 0.949219 C 43.429688 0.929688 43.351562 0.914062 43.257812 0.914062 C 43.160156 0.914062 43.082031 0.898438 43.082031 0.878906 C 43.082031 0.859375 42.996094 0.84375 42.890625 0.84375 C 42.789062 0.84375 42.703125 0.828125 42.703125 0.808594 C 42.703125 0.789062 42.609375 0.773438 42.492188 0.773438 C 42.378906 0.773438 42.285156 0.757812 42.285156 0.738281 C 42.285156 0.71875 42.175781 0.703125 42.027344 0.703125 C 41.875 0.703125 41.769531 0.6875 41.769531 0.667969 C 41.769531 0.648438 41.652344 0.632812 41.492188 0.632812 C 41.328125 0.632812 41.214844 0.617188 41.214844 0.597656 C 41.214844 0.578125 41.089844 0.5625 40.90625 0.5625 C 40.734375 0.5625 40.558594 0.546875 40.507812 0.527344 C 40.464844 0.511719 40.097656 0.484375 39.695312 0.472656 C 39.292969 0.457031 38.964844 0.433594 38.964844 0.414062 C 38.964844 0.398438 38.738281 0.386719 38.464844 0.386719 C 38.152344 0.386719 37.960938 0.371094 37.960938 0.351562 C 37.960938 0.328125 37.734375 0.316406 37.355469 0.316406 C 36.976562 0.316406 36.75 0.304688 36.75 0.28125 C 36.75 0.257812 36.488281 0.246094 36.039062 0.246094 C 35.589844 0.246094 35.332031 0.234375 35.332031 0.210938 C 35.332031 0.1875 35.007812 0.175781 34.429688 0.175781 C 33.855469 0.175781 33.53125 0.164062 33.53125 0.140625 C 33.53125 0.117188 33.121094 0.105469 32.375 0.105469 C 31.664062 0.105469 31.214844 0.09375 31.207031 0.0703125 C 31.195312 0.0351562 22.96875 0 19.628906 0.0234375 M 19.671875 10.226562 C 19.738281 10.265625 19.847656 10.328125 19.914062 10.367188 C 19.980469 10.40625 20.09375 10.472656 20.167969 10.511719 C 20.238281 10.550781 20.398438 10.644531 20.519531 10.71875 C 20.644531 10.789062 20.816406 10.890625 20.902344 10.9375 C 21.167969 11.085938 21.230469 11.121094 21.246094 11.140625 C 21.257812 11.148438 21.328125 11.191406 21.402344 11.230469 C 21.480469 11.273438 21.597656 11.335938 21.664062 11.378906 C 21.734375 11.417969 21.828125 11.472656 21.875 11.496094 C 21.917969 11.523438 21.964844 11.550781 21.972656 11.5625 C 21.984375 11.574219 22.078125 11.625 22.179688 11.683594 C 22.375 11.789062 22.5 11.855469 22.71875 11.984375 C 22.785156 12.023438 22.898438 12.085938 22.96875 12.128906 C 23.039062 12.167969 23.140625 12.230469 23.191406 12.269531 C 23.242188 12.304688 23.289062 12.335938 23.300781 12.335938 C 23.3125 12.335938 23.910156 12.679688 24.597656 13.078125 C 24.710938 13.144531 24.875 13.242188 25.023438 13.324219 C 25.066406 13.351562 25.113281 13.378906 25.125 13.390625 C 25.132812 13.398438 25.1875 13.429688 25.242188 13.460938 C 25.300781 13.488281 25.496094 13.597656 25.675781 13.699219 C 25.855469 13.804688 26.089844 13.9375 26.195312 13.996094 C 26.300781 14.050781 26.398438 14.109375 26.421875 14.125 C 26.453125 14.152344 26.554688 14.214844 26.886719 14.402344 C 26.972656 14.449219 27.144531 14.546875 27.269531 14.621094 C 27.390625 14.691406 27.550781 14.785156 27.625 14.828125 C 27.695312 14.867188 27.808594 14.933594 27.875 14.972656 C 27.941406 15.011719 28.050781 15.074219 28.117188 15.113281 C 28.183594 15.148438 28.292969 15.214844 28.359375 15.25 C 28.425781 15.289062 28.539062 15.355469 28.609375 15.398438 C 28.679688 15.441406 28.855469 15.539062 29 15.621094 C 29.246094 15.761719 29.371094 15.835938 29.640625 15.992188 C 29.703125 16.027344 29.816406 16.09375 29.882812 16.128906 C 29.945312 16.167969 30.058594 16.234375 30.132812 16.277344 C 30.203125 16.316406 30.347656 16.398438 30.453125 16.457031 C 30.554688 16.515625 30.675781 16.582031 30.71875 16.609375 C 30.757812 16.636719 30.847656 16.6875 30.917969 16.726562 C 30.984375 16.765625 31.09375 16.828125 31.15625 16.867188 C 31.21875 16.902344 31.3125 16.953125 31.355469 16.980469 C 31.402344 17.007812 31.445312 17.035156 31.457031 17.042969 C 31.464844 17.054688 31.519531 17.085938 31.578125 17.113281 C 31.632812 17.144531 31.6875 17.175781 31.699219 17.183594 C 31.707031 17.195312 31.78125 17.238281 31.863281 17.28125 C 32.230469 17.476562 32.285156 17.515625 32.285156 17.570312 C 32.285156 17.625 31.914062 17.863281 31.578125 18.027344 C 31.519531 18.054688 31.464844 18.085938 31.457031 18.097656 C 31.445312 18.105469 31.402344 18.136719 31.355469 18.164062 C 31.3125 18.1875 31.226562 18.238281 31.164062 18.273438 C 30.601562 18.605469 30.335938 18.757812 30.175781 18.847656 C 30.070312 18.90625 29.96875 18.964844 29.949219 18.980469 C 29.929688 18.996094 29.828125 19.054688 29.722656 19.109375 C 29.621094 19.167969 29.386719 19.300781 29.207031 19.40625 C 29.023438 19.511719 28.792969 19.648438 28.6875 19.703125 C 28.421875 19.851562 28.328125 19.90625 28.304688 19.925781 C 28.296875 19.933594 28.242188 19.96875 28.1875 19.996094 C 28.128906 20.027344 28.074219 20.054688 28.066406 20.066406 C 28.042969 20.085938 27.765625 20.242188 27.65625 20.292969 C 27.613281 20.3125 27.578125 20.339844 27.578125 20.355469 C 27.578125 20.371094 27.566406 20.382812 27.550781 20.382812 C 27.523438 20.382812 27.242188 20.539062 26.722656 20.84375 C 26.617188 20.90625 26.53125 20.957031 26.238281 21.125 C 26.167969 21.167969 26.039062 21.242188 25.953125 21.289062 C 25.867188 21.335938 25.667969 21.453125 25.511719 21.546875 C 25.351562 21.640625 25.21875 21.71875 25.210938 21.71875 C 25.203125 21.71875 25.113281 21.769531 25.011719 21.828125 C 24.910156 21.890625 24.777344 21.96875 24.71875 22.003906 C 24.65625 22.042969 24.542969 22.105469 24.472656 22.144531 C 24.402344 22.1875 24.257812 22.269531 24.152344 22.328125 C 24.046875 22.386719 23.855469 22.496094 23.722656 22.578125 C 23.585938 22.65625 23.433594 22.742188 23.375 22.773438 C 23.316406 22.800781 23.265625 22.832031 23.253906 22.84375 C 23.246094 22.851562 23.199219 22.882812 23.152344 22.910156 C 23 22.996094 22.855469 23.078125 22.550781 23.261719 C 22.382812 23.359375 22.242188 23.441406 22.234375 23.441406 C 22.230469 23.441406 22.054688 23.539062 21.847656 23.660156 C 21.640625 23.78125 21.425781 23.902344 21.367188 23.933594 C 21.3125 23.960938 21.257812 23.992188 21.246094 24.003906 C 21.238281 24.011719 21.195312 24.042969 21.148438 24.066406 C 21.101562 24.09375 21.007812 24.148438 20.941406 24.1875 C 20.871094 24.226562 20.746094 24.296875 20.660156 24.347656 C 20.574219 24.394531 20.488281 24.445312 20.46875 24.460938 C 20.449219 24.472656 20.347656 24.53125 20.246094 24.589844 C 20.140625 24.648438 19.996094 24.730469 19.921875 24.769531 C 19.601562 24.960938 19.546875 24.988281 19.515625 24.988281 C 19.496094 24.988281 19.480469 22.335938 19.480469 17.570312 C 19.480469 12.804688 19.496094 10.15625 19.515625 10.15625 C 19.535156 10.15625 19.605469 10.1875 19.671875 10.226562 "/>
            <path style=" stroke:none;fill-rule:evenodd;fill:rgb(98.823529%,51.764706%,51.764706%);fill-opacity:1;" d="M 19.5 17.570312 C 19.5 21.640625 19.503906 23.304688 19.507812 21.269531 C 19.515625 19.234375 19.515625 15.90625 19.507812 13.875 C 19.503906 11.839844 19.5 13.503906 19.5 17.570312 M 19.863281 10.398438 C 19.910156 10.4375 19.964844 10.472656 19.984375 10.472656 C 20.019531 10.472656 19.957031 10.421875 19.84375 10.363281 C 19.800781 10.339844 19.804688 10.351562 19.863281 10.398438 M 20.125 10.550781 C 20.230469 10.632812 20.660156 10.867188 20.660156 10.847656 C 20.660156 10.835938 20.539062 10.761719 20.390625 10.679688 C 20.101562 10.511719 20.015625 10.472656 20.125 10.550781 M 20.695312 10.875 C 20.695312 10.882812 20.742188 10.917969 20.796875 10.945312 C 20.855469 10.976562 20.902344 10.992188 20.902344 10.984375 C 20.902344 10.972656 20.855469 10.941406 20.796875 10.910156 C 20.742188 10.882812 20.695312 10.863281 20.695312 10.875 M 21.386719 11.277344 C 21.433594 11.316406 21.488281 11.351562 21.507812 11.351562 C 21.542969 11.351562 21.480469 11.300781 21.367188 11.242188 C 21.324219 11.21875 21.328125 11.230469 21.386719 11.277344 M 21.628906 11.417969 C 21.675781 11.457031 21.730469 11.492188 21.75 11.492188 C 21.785156 11.492188 21.722656 11.441406 21.609375 11.382812 C 21.566406 11.359375 21.570312 11.371094 21.628906 11.417969 M 22.214844 11.753906 C 22.214844 11.761719 22.261719 11.796875 22.320312 11.824219 C 22.378906 11.855469 22.421875 11.871094 22.421875 11.863281 C 22.421875 11.851562 22.378906 11.820312 22.320312 11.789062 C 22.261719 11.757812 22.214844 11.742188 22.214844 11.753906 M 22.457031 11.894531 C 22.457031 11.902344 22.503906 11.933594 22.5625 11.964844 C 22.621094 11.996094 22.664062 12.011719 22.664062 12.003906 C 22.664062 11.992188 22.621094 11.960938 22.5625 11.929688 C 22.503906 11.902344 22.457031 11.882812 22.457031 11.894531 M 23.394531 12.441406 C 23.511719 12.527344 23.582031 12.550781 23.496094 12.480469 C 23.449219 12.441406 23.394531 12.40625 23.375 12.40625 C 23.355469 12.40625 23.363281 12.421875 23.394531 12.441406 M 23.875 12.722656 C 23.996094 12.804688 24.066406 12.832031 23.980469 12.757812 C 23.933594 12.71875 23.878906 12.6875 23.859375 12.6875 C 23.839844 12.6875 23.847656 12.703125 23.875 12.722656 M 25.175781 13.46875 C 25.3125 13.5625 25.574219 13.707031 25.574219 13.691406 C 25.574219 13.671875 25.164062 13.425781 25.128906 13.425781 C 25.117188 13.425781 25.136719 13.445312 25.175781 13.46875 M 25.8125 13.84375 C 25.898438 13.910156 25.953125 13.933594 25.953125 13.898438 C 25.953125 13.890625 25.902344 13.859375 25.839844 13.828125 L 25.726562 13.773438 L 25.8125 13.84375 M 26.300781 14.125 C 26.347656 14.164062 26.402344 14.195312 26.421875 14.195312 C 26.457031 14.199219 26.394531 14.148438 26.28125 14.089844 C 26.234375 14.066406 26.242188 14.078125 26.300781 14.125 M 26.542969 14.265625 C 26.589844 14.304688 26.644531 14.335938 26.664062 14.335938 C 26.699219 14.335938 26.636719 14.289062 26.523438 14.230469 C 26.476562 14.207031 26.484375 14.21875 26.542969 14.265625 M 28.304688 15.285156 C 28.355469 15.324219 28.40625 15.355469 28.425781 15.355469 C 28.464844 15.355469 28.402344 15.308594 28.289062 15.25 C 28.242188 15.222656 28.25 15.234375 28.304688 15.285156 M 28.546875 15.425781 C 28.597656 15.464844 28.648438 15.496094 28.667969 15.496094 C 28.707031 15.496094 28.644531 15.449219 28.53125 15.390625 C 28.484375 15.363281 28.492188 15.378906 28.546875 15.425781 M 29.828125 16.164062 C 29.875 16.203125 29.929688 16.234375 29.949219 16.234375 C 29.988281 16.234375 29.925781 16.1875 29.8125 16.128906 C 29.765625 16.101562 29.773438 16.113281 29.828125 16.164062 M 30.210938 16.378906 C 30.328125 16.460938 30.398438 16.484375 30.3125 16.414062 C 30.265625 16.375 30.210938 16.34375 30.191406 16.34375 C 30.171875 16.34375 30.179688 16.359375 30.210938 16.378906 M 30.417969 16.5 C 30.417969 16.507812 30.464844 16.539062 30.519531 16.570312 C 30.578125 16.601562 30.625 16.617188 30.625 16.605469 C 30.625 16.597656 30.578125 16.5625 30.519531 16.535156 C 30.464844 16.503906 30.417969 16.488281 30.417969 16.5 M 30.660156 16.636719 C 30.660156 16.648438 30.707031 16.679688 30.765625 16.710938 C 30.820312 16.738281 30.867188 16.757812 30.867188 16.75 C 30.867188 16.738281 30.820312 16.707031 30.765625 16.675781 C 30.707031 16.644531 30.660156 16.628906 30.660156 16.636719 M 31.59375 17.183594 C 31.640625 17.222656 31.695312 17.253906 31.714844 17.253906 C 31.753906 17.253906 31.6875 17.207031 31.578125 17.144531 C 31.53125 17.121094 31.535156 17.132812 31.59375 17.183594 M 31.816406 17.308594 C 31.894531 17.375 32.183594 17.527344 32.128906 17.476562 C 32.113281 17.457031 32.015625 17.398438 31.921875 17.347656 C 31.828125 17.292969 31.78125 17.277344 31.816406 17.308594 M 32.027344 17.710938 C 31.96875 17.75 31.9375 17.78125 31.957031 17.78125 C 31.992188 17.78125 32.179688 17.644531 32.148438 17.644531 C 32.140625 17.644531 32.082031 17.671875 32.027344 17.710938 M 31.785156 17.851562 C 31.726562 17.890625 31.695312 17.921875 31.714844 17.921875 C 31.75 17.921875 31.9375 17.785156 31.90625 17.78125 C 31.894531 17.78125 31.84375 17.8125 31.785156 17.851562 M 30.894531 18.363281 C 30.765625 18.4375 30.773438 18.464844 30.902344 18.398438 C 30.957031 18.367188 31.007812 18.335938 31.007812 18.328125 C 31.007812 18.304688 31 18.304688 30.894531 18.363281 M 30.503906 18.589844 C 30.367188 18.679688 30.417969 18.679688 30.5625 18.589844 C 30.625 18.550781 30.660156 18.523438 30.640625 18.523438 C 30.625 18.523438 30.5625 18.550781 30.503906 18.589844 M 30.261719 18.730469 C 30.203125 18.769531 30.171875 18.800781 30.191406 18.800781 C 30.226562 18.800781 30.417969 18.664062 30.382812 18.660156 C 30.371094 18.660156 30.320312 18.691406 30.261719 18.730469 M 29.855469 18.960938 C 29.726562 19.03125 29.734375 19.0625 29.863281 18.996094 C 29.921875 18.964844 29.96875 18.933594 29.96875 18.921875 C 29.96875 18.902344 29.964844 18.902344 29.855469 18.960938 M 29.613281 19.101562 C 29.484375 19.175781 29.492188 19.203125 29.621094 19.136719 C 29.679688 19.105469 29.726562 19.074219 29.726562 19.066406 C 29.726562 19.042969 29.722656 19.042969 29.613281 19.101562 M 28.496094 19.75 C 28.441406 19.789062 28.40625 19.820312 28.425781 19.820312 C 28.460938 19.820312 28.648438 19.683594 28.617188 19.679688 C 28.609375 19.679688 28.554688 19.710938 28.496094 19.75 M 28.160156 19.941406 C 27.980469 20.050781 27.949219 20.089844 28.117188 20 C 28.289062 19.910156 28.367188 19.855469 28.324219 19.859375 C 28.304688 19.859375 28.230469 19.898438 28.160156 19.941406 M 27.605469 20.261719 C 27.476562 20.332031 27.484375 20.363281 27.613281 20.296875 C 27.671875 20.265625 27.71875 20.234375 27.71875 20.222656 C 27.71875 20.203125 27.714844 20.203125 27.605469 20.261719 M 27.363281 20.402344 C 27.234375 20.472656 27.242188 20.503906 27.371094 20.433594 C 27.429688 20.40625 27.476562 20.375 27.476562 20.363281 C 27.476562 20.339844 27.472656 20.34375 27.363281 20.402344 M 27.121094 20.542969 C 27.070312 20.574219 27.027344 20.601562 27.027344 20.613281 C 27.027344 20.644531 27.082031 20.625 27.164062 20.558594 C 27.265625 20.476562 27.25 20.472656 27.121094 20.542969 M 26.699219 20.789062 C 26.542969 20.878906 26.40625 20.96875 26.386719 20.988281 C 26.367188 21.011719 26.390625 21.003906 26.4375 20.976562 C 26.484375 20.945312 26.628906 20.863281 26.757812 20.789062 C 26.953125 20.679688 27.027344 20.628906 26.984375 20.628906 C 26.980469 20.628906 26.847656 20.703125 26.699219 20.789062 M 26.152344 21.097656 C 25.972656 21.210938 25.945312 21.25 26.109375 21.164062 C 26.285156 21.070312 26.363281 21.015625 26.316406 21.019531 C 26.296875 21.019531 26.222656 21.058594 26.152344 21.097656 M 25.597656 21.421875 C 25.46875 21.492188 25.476562 21.523438 25.605469 21.453125 C 25.664062 21.425781 25.710938 21.394531 25.710938 21.382812 C 25.710938 21.359375 25.707031 21.363281 25.597656 21.421875 M 25.269531 21.613281 C 25.171875 21.671875 25.089844 21.726562 25.089844 21.738281 C 25.089844 21.757812 25.394531 21.589844 25.449219 21.535156 C 25.511719 21.484375 25.453125 21.507812 25.269531 21.613281 M 24.914062 21.828125 C 24.855469 21.875 24.851562 21.886719 24.898438 21.863281 C 25.011719 21.800781 25.074219 21.753906 25.035156 21.753906 C 25.015625 21.753906 24.960938 21.789062 24.914062 21.828125 M 23.582031 22.597656 C 23.527344 22.636719 23.496094 22.667969 23.515625 22.667969 C 23.546875 22.664062 23.734375 22.527344 23.703125 22.527344 C 23.695312 22.527344 23.640625 22.558594 23.582031 22.597656 M 22.90625 22.988281 C 22.851562 23.035156 22.84375 23.046875 22.890625 23.023438 C 23.003906 22.964844 23.066406 22.914062 23.03125 22.914062 C 23.011719 22.914062 22.957031 22.945312 22.90625 22.988281 M 22.664062 23.128906 C 22.609375 23.175781 22.601562 23.1875 22.648438 23.164062 C 22.761719 23.105469 22.824219 23.054688 22.785156 23.054688 C 22.769531 23.054688 22.714844 23.085938 22.664062 23.128906 M 22.421875 23.269531 C 22.367188 23.316406 22.359375 23.328125 22.40625 23.304688 C 22.519531 23.242188 22.582031 23.195312 22.542969 23.195312 C 22.523438 23.195312 22.472656 23.226562 22.421875 23.269531 M 22.070312 23.460938 C 22.015625 23.488281 21.972656 23.519531 21.972656 23.527344 C 21.972656 23.5625 22.027344 23.542969 22.113281 23.476562 C 22.214844 23.394531 22.199219 23.390625 22.070312 23.460938 M 21.820312 23.617188 C 21.761719 23.65625 21.730469 23.6875 21.75 23.6875 C 21.785156 23.6875 21.972656 23.546875 21.941406 23.546875 C 21.929688 23.546875 21.875 23.578125 21.820312 23.617188 M 21.386719 23.863281 C 21.328125 23.914062 21.324219 23.925781 21.367188 23.902344 C 21.480469 23.84375 21.542969 23.792969 21.507812 23.792969 C 21.488281 23.792969 21.433594 23.824219 21.386719 23.863281 M 20 24.65625 C 19.785156 24.785156 19.738281 24.839844 19.949219 24.722656 C 20.105469 24.636719 20.210938 24.5625 20.171875 24.566406 C 20.164062 24.566406 20.085938 24.609375 20 24.65625 M 19.621094 24.886719 C 19.5625 24.933594 19.558594 24.945312 19.601562 24.921875 C 19.714844 24.859375 19.777344 24.8125 19.742188 24.8125 C 19.722656 24.8125 19.667969 24.84375 19.621094 24.886719 "/>
            <path style=" stroke:none;fill-rule:evenodd;fill:rgb(98.823529%,32.941176%,32.941176%);fill-opacity:1;" d="M 20.347656 10.644531 C 20.394531 10.683594 20.449219 10.714844 20.46875 10.714844 C 20.507812 10.71875 20.445312 10.667969 20.332031 10.609375 C 20.285156 10.585938 20.289062 10.597656 20.347656 10.644531 M 20.589844 10.785156 C 20.636719 10.824219 20.691406 10.855469 20.710938 10.859375 C 20.75 10.859375 20.683594 10.808594 20.574219 10.75 C 20.527344 10.726562 20.53125 10.738281 20.589844 10.785156 M 20.96875 11.003906 C 21.089844 11.085938 21.160156 11.109375 21.074219 11.039062 C 21.027344 11 20.972656 10.964844 20.953125 10.964844 C 20.933594 10.964844 20.941406 10.980469 20.96875 11.003906 M 22.492188 11.878906 C 22.613281 11.960938 22.679688 11.988281 22.597656 11.917969 C 22.550781 11.878906 22.496094 11.84375 22.476562 11.84375 C 22.457031 11.84375 22.464844 11.859375 22.492188 11.878906 M 22.734375 12.019531 C 22.855469 12.101562 22.925781 12.128906 22.839844 12.054688 C 22.792969 12.019531 22.738281 11.984375 22.71875 11.984375 C 22.699219 11.984375 22.707031 12 22.734375 12.019531 M 22.941406 12.140625 C 22.941406 12.148438 22.992188 12.183594 23.054688 12.210938 L 23.167969 12.269531 L 23.082031 12.199219 C 22.996094 12.128906 22.941406 12.105469 22.941406 12.140625 M 25.640625 13.703125 C 25.691406 13.742188 25.742188 13.773438 25.761719 13.773438 C 25.800781 13.773438 25.738281 13.726562 25.625 13.667969 C 25.578125 13.644531 25.585938 13.65625 25.640625 13.703125 M 25.867188 13.828125 C 25.90625 13.859375 25.96875 13.902344 26.003906 13.921875 L 26.074219 13.957031 L 26.003906 13.898438 C 25.96875 13.867188 25.90625 13.824219 25.867188 13.808594 L 25.796875 13.773438 L 25.867188 13.828125 M 26.230469 14.039062 C 26.230469 14.046875 26.28125 14.078125 26.34375 14.109375 L 26.457031 14.167969 L 26.371094 14.097656 C 26.285156 14.027344 26.230469 14.003906 26.230469 14.039062 M 29.65625 16.027344 C 29.777344 16.109375 29.84375 16.132812 29.761719 16.0625 C 29.710938 16.023438 29.660156 15.992188 29.640625 15.992188 C 29.621094 15.992188 29.628906 16.007812 29.65625 16.027344 M 30.503906 16.507812 C 30.523438 16.527344 30.617188 16.582031 30.710938 16.636719 C 30.808594 16.691406 30.851562 16.707031 30.816406 16.675781 C 30.738281 16.609375 30.449219 16.457031 30.503906 16.507812 M 30.9375 16.765625 C 31.054688 16.847656 31.125 16.871094 31.039062 16.800781 C 30.992188 16.761719 30.9375 16.730469 30.917969 16.730469 C 30.898438 16.730469 30.90625 16.746094 30.9375 16.765625 M 31.179688 16.90625 C 31.296875 16.988281 31.367188 17.011719 31.28125 16.941406 C 31.234375 16.902344 31.179688 16.871094 31.160156 16.871094 C 31.140625 16.871094 31.148438 16.886719 31.179688 16.90625 M 32.105469 17.699219 C 31.972656 17.769531 31.980469 17.796875 32.113281 17.730469 C 32.171875 17.699219 32.21875 17.667969 32.21875 17.660156 C 32.21875 17.636719 32.214844 17.636719 32.105469 17.699219 M 30.695312 18.523438 C 30.636719 18.570312 30.632812 18.582031 30.675781 18.558594 C 30.789062 18.5 30.851562 18.449219 30.816406 18.453125 C 30.796875 18.453125 30.742188 18.484375 30.695312 18.523438 M 27.847656 20.15625 C 27.71875 20.230469 27.726562 20.257812 27.855469 20.191406 C 27.914062 20.160156 27.960938 20.128906 27.960938 20.121094 C 27.960938 20.09375 27.957031 20.097656 27.847656 20.15625 M 27.164062 20.5625 C 27.105469 20.609375 27.101562 20.621094 27.148438 20.597656 C 27.257812 20.539062 27.324219 20.488281 27.285156 20.488281 C 27.265625 20.488281 27.210938 20.523438 27.164062 20.5625 M 25.640625 21.441406 C 25.585938 21.488281 25.578125 21.5 25.625 21.476562 C 25.738281 21.417969 25.800781 21.367188 25.761719 21.367188 C 25.742188 21.367188 25.691406 21.402344 25.640625 21.441406 M 25.425781 21.5625 C 25.296875 21.636719 25.304688 21.664062 25.433594 21.597656 C 25.492188 21.566406 25.539062 21.53125 25.539062 21.523438 C 25.539062 21.5 25.535156 21.503906 25.425781 21.5625 M 22.5 23.253906 C 22.34375 23.34375 22.222656 23.421875 22.230469 23.429688 C 22.242188 23.445312 22.804688 23.125 22.804688 23.105469 C 22.804688 23.082031 22.800781 23.082031 22.5 23.253906 M 21.894531 23.601562 C 21.765625 23.671875 21.773438 23.703125 21.90625 23.632812 C 21.960938 23.601562 22.007812 23.570312 22.007812 23.5625 C 22.007812 23.539062 22.003906 23.539062 21.894531 23.601562 M 21.65625 23.742188 C 21.523438 23.8125 21.53125 23.84375 21.664062 23.773438 C 21.71875 23.742188 21.765625 23.714844 21.765625 23.703125 C 21.765625 23.679688 21.761719 23.683594 21.65625 23.742188 M 20.78125 24.25 C 20.722656 24.285156 20.691406 24.316406 20.710938 24.316406 C 20.746094 24.316406 20.933594 24.179688 20.902344 24.179688 C 20.890625 24.179688 20.835938 24.210938 20.78125 24.25 M 20.375 24.480469 C 20.246094 24.550781 20.253906 24.582031 20.382812 24.511719 C 20.4375 24.480469 20.484375 24.449219 20.484375 24.441406 C 20.484375 24.417969 20.480469 24.417969 20.375 24.480469 "/>
        </svg>
<!--        <path d="M6 1H3c-.6 0-1 .4-1 1v14c0 .6.4 1 1 1h3c.6 0 1-.4 1-1V2c0-.6-.4-1-1-1zm6 0c-.6 0-1 .4-1 1v14c0 .6.4 1 1 1h3c.6 0 1-.4 1-1V2c0-.6-.4-1-1-1h-3z"/>-->

    </symbol>
    <symbol id="plyr-restart" viewBox="0 0 18 18">
        <path d="M9.7 1.2l.7 6.4 2.1-2.1c1.9 1.9 1.9 5.1 0 7-.9 1-2.2 1.5-3.5 1.5-1.3 0-2.6-.5-3.5-1.5-1.9-1.9-1.9-5.1 0-7 .6-.6 1.4-1.1 2.3-1.3l-.6-1.9C6 2.6 4.9 3.2 4 4.1 1.3 6.8 1.3 11.2 4 14c1.3 1.3 3.1 2 4.9 2 1.9 0 3.6-.7 4.9-2 2.7-2.7 2.7-7.1 0-9.9L16 1.9l-6.3-.7z"/>
    </symbol>
    <symbol id="plyr-rewind" viewBox="0 0 18 18">
        <path d="M10.125 1L0 9l10.125 8v-6.171L18 17V1l-7.875 6.171z"/>
    </symbol>
    <symbol id="plyr-settings" viewBox="0 0 18 18">
        <path d="M16.135 7.784a2 2 0 01-1.23-2.969c.322-.536.225-.998-.094-1.316l-.31-.31c-.318-.318-.78-.415-1.316-.094a2 2 0 01-2.969-1.23C10.065 1.258 9.669 1 9.219 1h-.438c-.45 0-.845.258-.997.865a2 2 0 01-2.969 1.23c-.536-.322-.999-.225-1.317.093l-.31.31c-.318.318-.415.781-.093 1.317a2 2 0 01-1.23 2.969C1.26 7.935 1 8.33 1 8.781v.438c0 .45.258.845.865.997a2 2 0 011.23 2.969c-.322.536-.225.998.094 1.316l.31.31c.319.319.782.415 1.316.094a2 2 0 012.969 1.23c.151.607.547.865.997.865h.438c.45 0 .845-.258.997-.865a2 2 0 012.969-1.23c.535.321.997.225 1.316-.094l.31-.31c.318-.318.415-.781.094-1.316a2 2 0 011.23-2.969c.607-.151.865-.547.865-.997v-.438c0-.451-.26-.846-.865-.997zM9 12a3 3 0 110-6 3 3 0 010 6z"/>
    </symbol>
    <symbol id="plyr-volume" viewBox="0 0 18 18">

        <path d="M15.6 3.3c-.4-.4-1-.4-1.4 0-.4.4-.4 1 0 1.4C15.4 5.9 16 7.4 16 9c0 1.6-.6 3.1-1.8 4.3-.4.4-.4 1 0 1.4.2.2.5.3.7.3.3 0 .5-.1.7-.3C17.1 13.2 18 11.2 18 9s-.9-4.2-2.4-5.7z"/>
        <path d="M11.282 5.282a.909.909 0 000 1.316c.735.735.995 1.458.995 2.402 0 .936-.425 1.917-.995 2.487a.909.909 0 000 1.316c.145.145.636.262 1.018.156a.725.725 0 00.298-.156C13.773 11.733 14.13 10.16 14.13 9c0-.17-.002-.34-.011-.51-.053-.992-.319-2.005-1.522-3.208a.909.909 0 00-1.316 0zm-7.496.726H.714C.286 6.008 0 6.31 0 6.76v4.512c0 .452.286.752.714.752h3.072l4.071 3.858c.5.3 1.143 0 1.143-.602V2.752c0-.601-.643-.977-1.143-.601L3.786 6.008z"/>
</symbol>
</svg>