<svg xmlns="http://www.w3.org/2000/svg" width="136" height="31">
    <path fill="#fff"
          d="M21.147 10.46h2.779a.745.745 0 0 0 .745-.745V4.057a.746.746 0 0 0-.64-.738L.854.008a.745.745 0 0 0-.846.629A.727.727 0 0 0 0 .746v5.445a.744.744 0 0 0 .745.744h16.877L.6 10.339a.756.756 0 0 0-.6.74v12.778a.751.751 0 0 0 .752.751.724.724 0 0 0 .11-.008l23.169-3.475a.746.746 0 0 0 .64-.739v-5.809a1.435 1.435 0 0 0-.109-.547 1.432 1.432 0 0 0-.311-.466ZM63.912 7.274a8.535 8.535 0 0 0-8.486 8.585v.073a8.487 8.487 0 0 0 16.969.379v-.379a8.536 8.536 0 0 0-8.412-8.657h-.073m0 15.064a6.238 6.238 0 0 1-6.061-6.407 6.07 6.07 0 1 1 12.122 0 6.216 6.216 0 0 1-6.02 6.406h-.041M82.439 22.338a6.19 6.19 0 0 1-5.887-6.407 6.19 6.19 0 0 1 5.887-6.407 6.312 6.312 0 0 1 5.022 2.771l1.731-1.732a8.9 8.9 0 0 0-6.752-3.29 8.665 8.665 0 0 0 0 17.316 9.35 9.35 0 0 0 6.93-3.465l-1.732-1.559a6.819 6.819 0 0 1-5.195 2.771M91.964 0h2.425v24.242h-2.425zM99.582 1.106a1.558 1.558 0 1 0 1.556 1.561 1.552 1.552 0 0 0-1.545-1.559h-.013M98.37 7.619h2.424v16.624H98.37zM112.392 7.274a7.192 7.192 0 0 0-5.715 2.77V7.62h-2.424v23.9h2.427v-9.7a7.192 7.192 0 0 0 5.715 2.77c4.5 0 8.139-3.634 8.139-8.658s-3.634-8.658-8.139-8.658m0 15.064c-2.944 0-5.715-2.771-5.715-6.407s2.771-6.407 5.715-6.407c3.117 0 5.715 2.6 5.715 6.407s-2.6 6.407-5.715 6.407M125.037 11.949c0-1.212 1.212-2.425 3.117-2.425a4.6 4.6 0 0 1 3.634 1.732l1.731-1.732a7.353 7.353 0 0 0-5.368-2.25c-3.29 0-5.541 2.25-5.541 4.675 0 5.715 9 3.809 9 7.619 0 1.558-1.213 2.77-3.634 2.77a5.578 5.578 0 0 1-4.328-2.427l-1.731 1.733a7.366 7.366 0 0 0 6.061 2.944c3.81 0 6.061-2.251 6.061-5.022 0-5.887-9-3.983-9-7.619M36.265 0h9.351c3.983 0 6.753 2.77 6.753 6.234a5.727 5.727 0 0 1-1.385 3.948 4.532 4.532 0 0 1-1.385 1.073 7.68 7.68 0 0 1 1.974 1.351 6.321 6.321 0 0 1 2.008 4.71c0 3.983-2.944 6.926-7.446 6.926h-9.87Zm9.351 10.182c2.632 0 4.156-1.489 4.156-3.948 0-2.251-1.524-3.809-4.156-3.809h-6.753v7.758Zm.52 11.636c2.944 0 4.848-1.87 4.848-4.5a4.733 4.733 0 0 0-4.848-4.848h-7.273v9.351Z"/>
</svg>

