<svg width="123" height="22" viewBox="0 0 123 22" fill="none" xmlns="http://www.w3.org/2000/svg">
<path d="M91.6211 9.08256C91.6211 6.79302 93.1543 4.97412 95.5207 4.97412C96.9206 4.97412 97.7205 5.51 98.3705 6.30565L97.771 6.8253C97.1872 6.04608 96.4539 5.7377 95.5707 5.7377C93.6875 5.7377 92.5376 7.19912 92.5376 9.08276C92.5376 10.9664 93.6876 12.4441 95.5707 12.4441C96.4539 12.4441 97.1872 12.1194 97.7705 11.3399L98.37 11.8596C97.7197 12.6714 96.9201 13.2074 95.5202 13.2074C93.1543 13.2071 91.6211 11.3721 91.6211 9.08256Z" fill="white"/>
<path d="M100.305 11.5021V2.18164H101.171V11.3723C101.171 12.0058 101.438 12.4439 102.004 12.4439C102.388 12.4439 102.721 12.2657 102.904 12.0704L103.237 12.7199C102.921 13.0122 102.538 13.2071 101.871 13.2071C100.821 13.2072 100.305 12.5739 100.305 11.5021Z" fill="white"/>
<path d="M104.336 3.28569C104.336 2.9285 104.653 2.6521 105.003 2.6521C105.369 2.6521 105.67 2.92811 105.67 3.28569C105.669 3.4578 105.599 3.62272 105.474 3.74443C105.349 3.86613 105.179 3.93472 105.003 3.93522C104.653 3.93522 104.336 3.64317 104.336 3.28569ZM104.57 13.0122V5.16933H105.437V13.0122H104.57Z" fill="white"/>
<path d="M108.999 11.7456V15.9999H108.133V5.16944H108.999V6.40356C109.566 5.60791 110.599 4.97461 111.799 4.97461C113.949 4.97461 115.399 6.56591 115.399 9.08305C115.399 11.5837 113.949 13.2076 111.799 13.2076C110.667 13.2071 109.65 12.6387 108.999 11.7456ZM114.466 9.08256C114.466 7.18307 113.45 5.73769 111.65 5.73769C110.534 5.73769 109.467 6.38702 108.999 7.13357V11.0143C109.466 11.7613 110.533 12.4433 111.649 12.4433C113.45 12.4441 114.466 10.9825 114.466 9.08256Z" fill="white"/>
<path d="M116.883 11.9569L117.399 11.3398C117.916 11.9734 118.866 12.4927 119.999 12.4927C121.349 12.4927 122.149 11.8107 122.149 10.9014C122.149 8.75804 117.066 9.97592 117.066 7.1505C117.066 5.94885 118.116 4.97461 119.933 4.97461C121.316 4.97461 122.232 5.49425 122.816 6.12754L122.332 6.72787C121.866 6.11081 120.999 5.68839 119.933 5.68839C118.683 5.68839 117.933 6.30544 117.933 7.11733C117.933 9.08216 122.999 7.88051 122.999 10.9007C122.999 12.167 121.999 13.2065 119.983 13.2065C118.682 13.2072 117.683 12.8337 116.883 11.9569Z" fill="white"/>
<path d="M86.5043 5.14355C84.1288 5.14355 82.2031 7.01988 82.2031 9.33447C82.2031 11.6491 84.1288 13.5254 86.5043 13.5254C88.8797 13.5254 90.8055 11.6491 90.8055 9.33447C90.8055 7.01988 88.8797 5.14355 86.5043 5.14355ZM86.498 11.7765C85.1207 11.7765 84.0043 10.6887 84.0043 9.34674C84.0043 8.00481 85.1207 6.91702 86.498 6.91702C87.8752 6.91702 88.9916 8.00481 88.9916 9.34674C88.9916 10.6887 87.8752 11.7769 86.498 11.7769V11.7765Z" fill="white"/>
<path d="M87.4709 9.19185C87.4035 9.11988 86.5664 8.40482 86.2768 8.27948C86.1431 8.22177 86.0378 8.27691 85.9881 8.416C85.9702 8.47357 85.9579 8.53263 85.9513 8.59242C85.9267 8.78052 85.917 9.0589 85.918 9.33431C85.917 9.60983 85.9267 9.88811 85.9513 10.0762C85.9579 10.136 85.9702 10.1951 85.9881 10.2527C86.0378 10.3918 86.1431 10.447 86.2768 10.3892C86.5664 10.2639 87.4035 9.54874 87.4709 9.47687C87.5095 9.43579 87.5401 9.39045 87.5373 9.33431C87.5401 9.27818 87.5095 9.23284 87.4709 9.19185Z" fill="#DC491C"/>
<path d="M77.3012 5.167C76.41 5.1656 75.5406 5.4352 74.8141 5.9382V1.19617C74.814 1.14413 74.7927 1.09426 74.7549 1.05746C74.7171 1.02066 74.666 0.999913 74.6125 0.999756H73.2016C73.1481 0.999887 73.0969 1.02064 73.0592 1.05746C73.0214 1.09429 73.0001 1.1442 73 1.19627V9.2892C73 9.29217 73 9.29514 73 9.29811C73 9.31791 73 9.33771 73 9.35751C73 11.6721 74.9257 13.5485 77.3012 13.5485C79.6766 13.5485 81.6023 11.6721 81.6023 9.35751C81.6023 7.04293 79.6766 5.167 77.3012 5.167ZM77.2949 11.7999C75.9176 11.8005 74.8009 10.7125 74.8009 9.37058C74.8009 9.36613 74.8139 9.1214 74.8139 9.1214C74.9419 7.89649 76.0038 6.94086 77.2947 6.94086C78.672 6.94086 79.7885 8.02866 79.7885 9.37058C79.7885 10.7125 78.672 11.8005 77.2949 11.8005V11.7999Z" fill="white"/>
<path d="M77.33 5.16675C76.4034 5.16675 75.5222 5.42959 74.8125 5.93795L74.8227 9.08146C75.004 7.82536 76.0506 6.941 77.3237 6.94051" fill="white"/>
<g filter="url(#filter0_d_5440_36794)">
<path d="M4.32 13C4.232 13 4.164 12.976 4.116 12.928C4.068 12.872 4.044 12.804 4.044 12.724V4.888C4.044 4.8 4.068 4.732 4.116 4.684C4.164 4.628 4.232 4.6 4.32 4.6H7.368C7.96 4.6 8.472 4.696 8.904 4.888C9.344 5.08 9.684 5.368 9.924 5.752C10.164 6.128 10.284 6.6 10.284 7.168C10.284 7.736 10.164 8.208 9.924 8.584C9.684 8.96 9.344 9.244 8.904 9.436C8.472 9.628 7.96 9.724 7.368 9.724H5.244V12.724C5.244 12.804 5.216 12.872 5.16 12.928C5.112 12.976 5.044 13 4.956 13H4.32ZM5.232 8.716H7.308C7.9 8.716 8.344 8.584 8.64 8.32C8.936 8.056 9.084 7.672 9.084 7.168C9.084 6.672 8.94 6.288 8.652 6.016C8.364 5.744 7.916 5.608 7.308 5.608H5.232V8.716ZM14.0756 13.12C13.4676 13.12 12.9596 13.004 12.5516 12.772C12.1436 12.54 11.8316 12.22 11.6156 11.812C11.3996 11.396 11.2796 10.924 11.2556 10.396C11.2476 10.26 11.2436 10.088 11.2436 9.88C11.2436 9.664 11.2476 9.492 11.2556 9.364C11.2796 8.828 11.3996 8.356 11.6156 7.948C11.8396 7.54 12.1556 7.22 12.5636 6.988C12.9716 6.756 13.4756 6.64 14.0756 6.64C14.6756 6.64 15.1796 6.756 15.5876 6.988C15.9956 7.22 16.3076 7.54 16.5236 7.948C16.7476 8.356 16.8716 8.828 16.8956 9.364C16.9036 9.492 16.9076 9.664 16.9076 9.88C16.9076 10.088 16.9036 10.26 16.8956 10.396C16.8716 10.924 16.7516 11.396 16.5356 11.812C16.3196 12.22 16.0076 12.54 15.5996 12.772C15.1916 13.004 14.6836 13.12 14.0756 13.12ZM14.0756 12.196C14.5716 12.196 14.9676 12.04 15.2636 11.728C15.5596 11.408 15.7196 10.944 15.7436 10.336C15.7516 10.216 15.7556 10.064 15.7556 9.88C15.7556 9.696 15.7516 9.544 15.7436 9.424C15.7196 8.816 15.5596 8.356 15.2636 8.044C14.9676 7.724 14.5716 7.564 14.0756 7.564C13.5796 7.564 13.1796 7.724 12.8756 8.044C12.5796 8.356 12.4236 8.816 12.4076 9.424C12.3996 9.544 12.3956 9.696 12.3956 9.88C12.3956 10.064 12.3996 10.216 12.4076 10.336C12.4236 10.944 12.5796 11.408 12.8756 11.728C13.1796 12.04 13.5796 12.196 14.0756 12.196ZM19.9166 13C19.8126 13 19.7326 12.976 19.6766 12.928C19.6206 12.872 19.5726 12.796 19.5326 12.7L17.8286 7.132C17.8126 7.092 17.8046 7.052 17.8046 7.012C17.8046 6.94 17.8286 6.88 17.8766 6.832C17.9326 6.784 17.9926 6.76 18.0566 6.76H18.5846C18.6726 6.76 18.7406 6.784 18.7886 6.832C18.8366 6.88 18.8686 6.924 18.8846 6.964L20.2166 11.488L21.6446 7.012C21.6606 6.956 21.6926 6.9 21.7406 6.844C21.7966 6.788 21.8766 6.76 21.9806 6.76H22.3886C22.4926 6.76 22.5726 6.788 22.6286 6.844C22.6846 6.9 22.7166 6.956 22.7246 7.012L24.1525 11.488L25.4846 6.964C25.4926 6.924 25.5206 6.88 25.5686 6.832C25.6166 6.784 25.6846 6.76 25.7726 6.76H26.3006C26.3726 6.76 26.4326 6.784 26.4806 6.832C26.5286 6.88 26.5526 6.94 26.5526 7.012C26.5526 7.052 26.5446 7.092 26.5286 7.132L24.8246 12.7C24.8006 12.796 24.7566 12.872 24.6926 12.928C24.6366 12.976 24.5526 13 24.4406 13H23.9726C23.8686 13 23.7806 12.976 23.7085 12.928C23.6446 12.872 23.6006 12.796 23.5766 12.7L22.1846 8.404L20.7926 12.7C20.7606 12.796 20.7126 12.872 20.6486 12.928C20.5846 12.976 20.4966 13 20.3846 13H19.9166ZM30.216 13.12C29.392 13.12 28.736 12.868 28.248 12.364C27.76 11.852 27.492 11.156 27.444 10.276C27.436 10.172 27.432 10.04 27.432 9.88C27.432 9.712 27.436 9.576 27.444 9.472C27.476 8.904 27.608 8.408 27.84 7.984C28.072 7.552 28.388 7.22 28.788 6.988C29.196 6.756 29.672 6.64 30.216 6.64C30.824 6.64 31.332 6.768 31.74 7.024C32.156 7.28 32.472 7.644 32.688 8.116C32.904 8.588 33.012 9.14 33.012 9.772V9.976C33.012 10.064 32.984 10.132 32.928 10.18C32.88 10.228 32.816 10.252 32.736 10.252H28.584C28.584 10.26 28.584 10.276 28.584 10.3C28.584 10.324 28.584 10.344 28.584 10.36C28.6 10.688 28.672 10.996 28.8 11.284C28.928 11.564 29.112 11.792 29.352 11.968C29.592 12.144 29.88 12.232 30.216 12.232C30.504 12.232 30.744 12.188 30.936 12.1C31.128 12.012 31.284 11.916 31.404 11.812C31.524 11.7 31.604 11.616 31.644 11.56C31.716 11.456 31.772 11.396 31.812 11.38C31.852 11.356 31.916 11.344 32.004 11.344H32.58C32.66 11.344 32.724 11.368 32.772 11.416C32.828 11.456 32.852 11.516 32.844 11.596C32.836 11.716 32.772 11.864 32.652 12.04C32.532 12.208 32.36 12.376 32.136 12.544C31.912 12.712 31.64 12.852 31.32 12.964C31 13.068 30.632 13.12 30.216 13.12ZM28.584 9.424H31.872V9.388C31.872 9.028 31.804 8.708 31.668 8.428C31.54 8.148 31.352 7.928 31.104 7.768C30.856 7.6 30.56 7.516 30.216 7.516C29.872 7.516 29.576 7.6 29.328 7.768C29.088 7.928 28.904 8.148 28.776 8.428C28.648 8.708 28.584 9.028 28.584 9.388V9.424ZM34.7372 13C34.6572 13 34.5892 12.976 34.5332 12.928C34.4852 12.872 34.4612 12.804 34.4612 12.724V7.048C34.4612 6.968 34.4852 6.9 34.5332 6.844C34.5892 6.788 34.6572 6.76 34.7372 6.76H35.2892C35.3692 6.76 35.4372 6.788 35.4932 6.844C35.5492 6.9 35.5772 6.968 35.5772 7.048V7.576C35.7372 7.304 35.9572 7.1 36.2372 6.964C36.5172 6.828 36.8532 6.76 37.2452 6.76H37.7252C37.8052 6.76 37.8692 6.788 37.9172 6.844C37.9652 6.892 37.9892 6.956 37.9892 7.036V7.528C37.9892 7.608 37.9652 7.672 37.9172 7.72C37.8692 7.768 37.8052 7.792 37.7252 7.792H37.0052C36.5732 7.792 36.2332 7.92 35.9852 8.176C35.7372 8.424 35.6132 8.764 35.6132 9.196V12.724C35.6132 12.804 35.5852 12.872 35.5292 12.928C35.4732 12.976 35.4052 13 35.3252 13H34.7372ZM41.401 13.12C40.577 13.12 39.921 12.868 39.433 12.364C38.945 11.852 38.677 11.156 38.629 10.276C38.621 10.172 38.617 10.04 38.617 9.88C38.617 9.712 38.621 9.576 38.629 9.472C38.661 8.904 38.793 8.408 39.025 7.984C39.257 7.552 39.573 7.22 39.973 6.988C40.381 6.756 40.857 6.64 41.401 6.64C42.009 6.64 42.517 6.768 42.925 7.024C43.341 7.28 43.657 7.644 43.873 8.116C44.089 8.588 44.197 9.14 44.197 9.772V9.976C44.197 10.064 44.169 10.132 44.113 10.18C44.065 10.228 44.001 10.252 43.921 10.252H39.769C39.769 10.26 39.769 10.276 39.769 10.3C39.769 10.324 39.769 10.344 39.769 10.36C39.785 10.688 39.857 10.996 39.985 11.284C40.113 11.564 40.297 11.792 40.537 11.968C40.777 12.144 41.065 12.232 41.401 12.232C41.689 12.232 41.929 12.188 42.121 12.1C42.313 12.012 42.469 11.916 42.589 11.812C42.709 11.7 42.789 11.616 42.829 11.56C42.901 11.456 42.957 11.396 42.997 11.38C43.037 11.356 43.101 11.344 43.189 11.344H43.765C43.845 11.344 43.909 11.368 43.957 11.416C44.013 11.456 44.037 11.516 44.029 11.596C44.021 11.716 43.957 11.864 43.837 12.04C43.717 12.208 43.545 12.376 43.321 12.544C43.097 12.712 42.825 12.852 42.505 12.964C42.185 13.068 41.817 13.12 41.401 13.12ZM39.769 9.424H43.057V9.388C43.057 9.028 42.989 8.708 42.853 8.428C42.725 8.148 42.537 7.928 42.289 7.768C42.041 7.6 41.745 7.516 41.401 7.516C41.057 7.516 40.761 7.6 40.513 7.768C40.273 7.928 40.089 8.148 39.961 8.428C39.833 8.708 39.769 9.028 39.769 9.388V9.424ZM47.9263 13.12C47.4863 13.12 47.1063 13.044 46.7863 12.892C46.4663 12.732 46.2023 12.52 45.9943 12.256C45.7943 11.984 45.6423 11.676 45.5383 11.332C45.4423 10.988 45.3863 10.624 45.3703 10.24C45.3623 10.112 45.3583 9.992 45.3583 9.88C45.3583 9.768 45.3623 9.648 45.3703 9.52C45.3863 9.144 45.4423 8.784 45.5383 8.44C45.6423 8.096 45.7943 7.788 45.9943 7.516C46.2023 7.244 46.4663 7.032 46.7863 6.88C47.1063 6.72 47.4863 6.64 47.9263 6.64C48.3983 6.64 48.7903 6.724 49.1023 6.892C49.4143 7.06 49.6703 7.268 49.8703 7.516V4.756C49.8703 4.676 49.8943 4.612 49.9423 4.564C49.9983 4.508 50.0663 4.48 50.1463 4.48H50.7223C50.8023 4.48 50.8663 4.508 50.9143 4.564C50.9703 4.612 50.9983 4.676 50.9983 4.756V12.724C50.9983 12.804 50.9703 12.872 50.9143 12.928C50.8663 12.976 50.8023 13 50.7223 13H50.1823C50.0943 13 50.0263 12.976 49.9783 12.928C49.9303 12.872 49.9063 12.804 49.9063 12.724V12.22C49.7063 12.476 49.4463 12.692 49.1263 12.868C48.8063 13.036 48.4063 13.12 47.9263 13.12ZM48.1783 12.148C48.5783 12.148 48.8983 12.056 49.1383 11.872C49.3783 11.688 49.5583 11.456 49.6783 11.176C49.7983 10.888 49.8623 10.596 49.8703 10.3C49.8783 10.172 49.8823 10.02 49.8823 9.844C49.8823 9.66 49.8783 9.504 49.8703 9.376C49.8623 9.096 49.7943 8.82 49.6663 8.548C49.5463 8.276 49.3623 8.052 49.1143 7.876C48.8743 7.7 48.5623 7.612 48.1783 7.612C47.7703 7.612 47.4463 7.704 47.2063 7.888C46.9663 8.064 46.7943 8.3 46.6903 8.596C46.5863 8.884 46.5263 9.196 46.5103 9.532C46.5023 9.764 46.5023 9.996 46.5103 10.228C46.5263 10.564 46.5863 10.88 46.6903 11.176C46.7943 11.464 46.9663 11.7 47.2063 11.884C47.4463 12.06 47.7703 12.148 48.1783 12.148ZM58.8372 13.12C58.3572 13.12 57.9572 13.036 57.6372 12.868C57.3172 12.692 57.0612 12.476 56.8692 12.22V12.724C56.8692 12.804 56.8412 12.872 56.7852 12.928C56.7372 12.976 56.6732 13 56.5932 13H56.0412C55.9612 13 55.8932 12.976 55.8372 12.928C55.7892 12.872 55.7652 12.804 55.7652 12.724V4.756C55.7652 4.676 55.7892 4.612 55.8372 4.564C55.8932 4.508 55.9612 4.48 56.0412 4.48H56.6172C56.7052 4.48 56.7732 4.508 56.8212 4.564C56.8692 4.612 56.8932 4.676 56.8932 4.756V7.516C57.0932 7.268 57.3492 7.06 57.6612 6.892C57.9812 6.724 58.3732 6.64 58.8372 6.64C59.2852 6.64 59.6652 6.72 59.9772 6.88C60.2972 7.032 60.5572 7.244 60.7572 7.516C60.9652 7.788 61.1212 8.096 61.2252 8.44C61.3292 8.784 61.3852 9.144 61.3932 9.52C61.4012 9.648 61.4052 9.768 61.4052 9.88C61.4052 9.992 61.4012 10.112 61.3932 10.24C61.3852 10.624 61.3292 10.988 61.2252 11.332C61.1212 11.676 60.9652 11.984 60.7572 12.256C60.5572 12.52 60.2972 12.732 59.9772 12.892C59.6652 13.044 59.2852 13.12 58.8372 13.12ZM58.5852 12.148C59.0012 12.148 59.3252 12.06 59.5572 11.884C59.7972 11.7 59.9692 11.464 60.0732 11.176C60.1772 10.88 60.2372 10.564 60.2532 10.228C60.2612 9.996 60.2612 9.764 60.2532 9.532C60.2372 9.196 60.1772 8.884 60.0732 8.596C59.9692 8.3 59.7972 8.064 59.5572 7.888C59.3252 7.704 59.0012 7.612 58.5852 7.612C58.2092 7.612 57.8972 7.7 57.6492 7.876C57.4012 8.052 57.2132 8.276 57.0852 8.548C56.9652 8.82 56.9012 9.096 56.8932 9.376C56.8852 9.504 56.8812 9.66 56.8812 9.844C56.8812 10.02 56.8852 10.172 56.8932 10.3C56.9092 10.596 56.9732 10.888 57.0852 11.176C57.2052 11.456 57.3852 11.688 57.6252 11.872C57.8732 12.056 58.1932 12.148 58.5852 12.148ZM63.7619 15.28C63.6979 15.28 63.6419 15.256 63.5939 15.208C63.5459 15.16 63.5219 15.104 63.5219 15.04C63.5219 15.008 63.5259 14.976 63.5339 14.944C63.5419 14.912 63.5579 14.872 63.5819 14.824L64.5059 12.628L62.2139 7.216C62.1739 7.12 62.1539 7.052 62.1539 7.012C62.1539 6.94 62.1779 6.88 62.2259 6.832C62.2739 6.784 62.3339 6.76 62.4059 6.76H62.9939C63.0739 6.76 63.1379 6.78 63.1859 6.82C63.2339 6.86 63.2659 6.908 63.2819 6.964L65.1059 11.332L66.9779 6.964C67.0019 6.908 67.0339 6.86 67.0739 6.82C67.1219 6.78 67.1899 6.76 67.2779 6.76H67.8419C67.9139 6.76 67.9739 6.784 68.0219 6.832C68.0699 6.88 68.0939 6.936 68.0939 7C68.0939 7.04 68.0739 7.112 68.0339 7.216L64.6259 15.076C64.6019 15.132 64.5659 15.18 64.5179 15.22C64.4779 15.26 64.4139 15.28 64.3259 15.28H63.7619Z" fill="white"/>
</g>
<defs>
<filter id="filter0_d_5440_36794" x="0.0429688" y="2.47998" width="72.0508" height="18.8" filterUnits="userSpaceOnUse" color-interpolation-filters="sRGB">
<feFlood flood-opacity="0" result="BackgroundImageFix"/>
<feColorMatrix in="SourceAlpha" type="matrix" values="0 0 0 0 0 0 0 0 0 0 0 0 0 0 0 0 0 0 127 0" result="hardAlpha"/>
<feOffset dy="2"/>
<feGaussianBlur stdDeviation="2"/>
<feComposite in2="hardAlpha" operator="out"/>
<feColorMatrix type="matrix" values="0 0 0 0 0 0 0 0 0 0 0 0 0 0 0 0 0 0 0.25 0"/>
<feBlend mode="normal" in2="BackgroundImageFix" result="effect1_dropShadow_5440_36794"/>
<feBlend mode="normal" in="SourceGraphic" in2="effect1_dropShadow_5440_36794" result="shape"/>
</filter>
</defs>
</svg>
